<?xml version="1.0" encoding="utf-8"?>
<!-- Generator: Adobe Illustrator 23.0.0, SVG Export Plug-In . SVG Version: 6.00 Build 0)  -->
<svg version="1.1" id="Capa_1" xmlns="http://www.w3.org/2000/svg" xmlns:xlink="http://www.w3.org/1999/xlink" x="0px" y="0px"
	 viewBox="0 0 100 100" style="enable-background:new 0 0 100 100;" xml:space="preserve">
<style type="text/css">
	.st0{fill:none;stroke:#000000;stroke-width:1.5;stroke-miterlimit:10;}
	.st1{fill:none;stroke:#000000;stroke-miterlimit:10;}
</style>
<g>
	<rect x="6.6" y="36.7" class="st0" width="86.8" height="51"/>
	<line class="st0" x1="98.5" y1="36.7" x2="1.5" y2="36.7"/>
	<line class="st0" x1="98.5" y1="87.6" x2="1.5" y2="87.6"/>
	<line class="st0" x1="93.4" y1="96.6" x2="93.4" y2="27.7"/>
	<line class="st0" x1="6.6" y1="96.6" x2="6.6" y2="27.7"/>
	<rect x="57.7" y="52" class="st1" width="23.9" height="35.7"/>
	<rect x="14.9" y="60.3" class="st1" width="38.1" height="27.3"/>
	<rect x="18" y="63.6" class="st1" width="32" height="4.3"/>
	<rect x="60.2" y="54.9" class="st1" width="19.2" height="3.3"/>
	<g>
		<rect x="64.1" y="22" class="st1" width="6.6" height="12"/>
		<g>
			<g>
				<path class="st1" d="M67.6,19.3c0,0-6.3,0-6.9,0"/>
				<path class="st1" d="M67.6,3.4h-3v4.8c-0.2,1-0.6,2-1,2.9c-0.7,1.4-1.3,2.7-2,4.1c-0.9,1.7-0.9,3.1-0.9,4.9c0,5.5,0,11.1,0,16.6
					h6.9"/>
			</g>
			<g>
				<path class="st1" d="M67.3,19.3c0,0,6.3,0,6.9,0"/>
				<path class="st1" d="M67.3,3.4h3v4.8c0.2,1,0.6,2,1,2.9c0.7,1.4,1.3,2.7,2,4.1c0.9,1.7,0.9,3.1,0.9,4.9c0,5.5,0,11.1,0,16.6
					h-6.9"/>
			</g>
		</g>
	</g>
	<g>
		<rect x="24.6" y="18.1" class="st1" width="30.8" height="18.6"/>
		<polyline class="st1" points="52,18.2 52,12.1 27.9,18.1 		"/>
		<polyline class="st1" points="27.9,18.1 49,12.1 52,18.1 		"/>
		<polyline class="st1" points="27.9,18.1 41.5,10.6 52,18.1 		"/>
	</g>
</g>
</svg>
