<?xml version="1.0" encoding="utf-8"?>
<!-- Generator: Adobe Illustrator 23.0.0, SVG Export Plug-In . SVG Version: 6.00 Build 0)  -->
<svg version="1.1" id="Capa_1" xmlns="http://www.w3.org/2000/svg" xmlns:xlink="http://www.w3.org/1999/xlink" x="0px" y="0px"
	 viewBox="0 0 100 100" style="enable-background:new 0 0 100 100;" xml:space="preserve">
<style type="text/css">
	.st0{fill:none;stroke:#000000;stroke-width:1.5;stroke-miterlimit:10;}
	.st1{fill:none;stroke:#000000;stroke-miterlimit:10;}
</style>
<g>
	<g>
		<rect x="8.4" y="87" width="15.7" height="3.9"/>
		<rect x="55.8" y="87" width="15.7" height="3.9"/>
	</g>
	<rect x="90.4" y="46.8" transform="matrix(4.474294e-11 -1 1 4.474294e-11 49.0999 146.4407)" width="14.7" height="3.7"/>
	<g>
		<rect x="1.2" y="9.1" class="st0" width="77.5" height="38.8"/>
		<rect x="1.2" y="47.9" class="st0" width="77.5" height="38.8"/>
		<path class="st1" d="M35.9,68.7c0,4.2-3.4,7.6-7.6,7.6c-1.6,0-1.7-0.5-3-1.3c-1.2,0.9-1.4,1.3-3,1.3c-4.2,0-7.6-3.4-7.6-7.6
			c0-4.2,3.4-7.6,7.6-7.6c1.6,0,1.7,0.5,3,1.3c1.2-0.9,1.4-1.3,3-1.3C32.5,61,35.9,64.4,35.9,68.7z"/>
		<path class="st1" d="M25.9,62.1c-0.5-0.2-0.6-0.9-0.6-1.4c0-0.6,0-1.1,0.3-1.6c0.2-0.4,0.5-0.7,0.8-1c0.8-0.8,1.6-1.5,2.5-2.1"/>
		<g>
			<circle class="st1" cx="54.8" cy="67.7" r="8.8"/>
			<g>
				<g>
					<path d="M55,61.4c0.4,0.4,0.5,0.8,0.5,1.3c0,0.4-0.1,0.8-0.5,1.3c-0.4-0.4-0.5-0.8-0.5-1.3C54.5,62.2,54.6,61.8,55,61.4z"/>
				</g>
				<g>
					<path d="M50.5,63.1c0.6,0,0.9,0.3,1.3,0.5c0.3,0.3,0.5,0.7,0.5,1.3c-0.6,0-0.9-0.3-1.3-0.5C50.8,64.1,50.5,63.7,50.5,63.1z"/>
				</g>
				<g>
					<path d="M48.5,67.5c0.4-0.4,0.8-0.5,1.3-0.5c0.4,0,0.8,0.1,1.3,0.5c-0.4,0.4-0.8,0.5-1.3,0.5C49.4,68,49,67.9,48.5,67.5z"/>
				</g>
				<g>
					<path d="M50.3,72c0-0.6,0.3-0.9,0.5-1.3c0.3-0.3,0.7-0.5,1.3-0.5c0,0.6-0.3,0.9-0.5,1.3C51.2,71.7,50.8,72,50.3,72z"/>
				</g>
				<g>
					<path d="M54.7,73.9c-0.4-0.4-0.5-0.8-0.5-1.3c0-0.4,0.1-0.8,0.5-1.3c0.4,0.4,0.5,0.8,0.5,1.3C55.1,73.1,55,73.5,54.7,73.9z"/>
				</g>
				<g>
					<path d="M59.1,72.2c-0.6,0-0.9-0.3-1.3-0.5c-0.3-0.3-0.5-0.7-0.5-1.3c0.6,0,0.9,0.3,1.3,0.5C58.9,71.3,59.1,71.6,59.1,72.2z"/>
				</g>
				<g>
					<path d="M61.1,67.8c-0.4,0.4-0.8,0.5-1.3,0.5c-0.4,0-0.8-0.1-1.3-0.5c0.4-0.4,0.8-0.5,1.3-0.5C60.2,67.4,60.7,67.4,61.1,67.8z"
						/>
				</g>
				<g>
					<path d="M59.4,63.4c0,0.6-0.3,0.9-0.5,1.3c-0.3,0.3-0.7,0.5-1.3,0.5c0-0.6,0.3-0.9,0.5-1.3C58.4,63.6,58.8,63.4,59.4,63.4z"/>
				</g>
			</g>
		</g>
		<g>
			<path class="st1" d="M62.3,36.5c-2.3,3.4-5.5,5-9.5,5.2c-5.3,0.3-10.6-0.4-15.6-2.3c-1.7-0.6-3.3-1.5-4.6-2.8
				c-1.4-1.5-1.6-3.1-0.8-4.9c0.8-1.8,2.1-3.3,3.6-4.6c4-3.6,8.5-6.2,13.5-7.9c2.9-0.9,5.7-0.9,8.4,0.4c4.3,2,6.7,5.5,6.9,10.2
				C64.3,32.2,63.6,34.4,62.3,36.5z M62.2,28.9c0-0.3,0.1-0.6,0-0.8c-0.1-0.5-0.3-1.1-0.5-1.6c-0.7-1.8-1.8-3.3-3.4-4.4
				c-1.2-0.9-2.6-1.5-4.1-1.8c-0.5-0.1-1,0.2-1.1,0.8c-0.1,0.6,0.2,1,0.9,1.2c3.3,0.8,5.3,2.8,6.2,6c0.1,0.2,0.1,0.4,0.2,0.6
				C60.8,29.5,61.7,29.5,62.2,28.9z M51.2,20.6c-0.2-0.4-0.7-0.3-0.9-0.3c-0.8,0.2-1.6,0.4-2.3,0.7c-0.5,0.2-0.7,0.7-0.5,1.2
				c0.2,0.5,0.6,0.8,1.1,0.6c0.8-0.2,1.5-0.4,2.3-0.7c0.4-0.1,0.6-0.4,0.6-0.8C51.5,21,51.3,21,51.2,20.6z"/>
			<path class="st1" d="M30.8,33.1c-0.1,1.2,0.1,2.3,0.7,3.4c-0.2,0-0.4,0-0.6,0c-2.8,0.6-5.6,1.1-8.4,1.7c-1,0.2-1.2,0.7-0.8,1.6
				c0.5,1.1,0.2,2.4-0.7,3.2c-1,0.9-2.2,1-3.4,0.3c-1-0.6-1.6-1.8-1.3-3c0.2-1,0.8-1.7,1.8-2c0.6-0.2,0.9-0.6,0.8-1.1
				c-0.1-0.5-0.5-0.8-1.1-0.7c-1.2,0-2.3-0.6-2.8-1.7c-0.5-1-0.2-2.3,0.6-3.1c0.8-0.8,2-1.1,3-0.7c1.1,0.4,1.8,1.5,1.8,2.7
				c0,1.1,0.4,1.4,1.4,1.2c2.8-0.6,5.6-1.1,8.4-1.7C30.4,33.2,30.6,33.1,30.8,33.1z"/>
		</g>
	</g>
	<polygon class="st0" points="78.7,81.5 95.5,85.6 95.5,9.1 78.7,13.2 	"/>
</g>
</svg>
