<?xml version="1.0" encoding="utf-8"?>
<!-- Generator: Adobe Illustrator 23.0.0, SVG Export Plug-In . SVG Version: 6.00 Build 0)  -->
<svg version="1.1" id="Capa_1" xmlns="http://www.w3.org/2000/svg" xmlns:xlink="http://www.w3.org/1999/xlink" x="0px" y="0px"
	 viewBox="0 0 100 100" style="enable-background:new 0 0 100 100;" xml:space="preserve">
<style type="text/css">
	.st0{fill:none;stroke:#000000;stroke-width:1.5;stroke-miterlimit:10;}
</style>
<g>
	<g>
		<g>
			<path class="st0" d="M58.5,10.9v0.5v6.4l7.6,7.6c1.3,1.3,2,2.9,2,4.7v13.3V66"/>
			<g>
				<path class="st0" d="M41.5,10.9v0.5v6.4l-7.6,7.6c-1.3,1.3-2,2.9-2,4.7v13.3V66"/>
				<path class="st0" d="M50.2,3.6h-0.3h-9.3c-0.8,0-1.4,0.6-1.4,1.4v5c0,0.8,0.6,1.4,1.4,1.4h9.3h0.3h9.3c0.8,0,1.4-0.6,1.4-1.4V5
					c0-0.8-0.6-1.4-1.4-1.4H50.2z"/>
			</g>
		</g>
		<rect x="32" y="43.5" class="st0" width="36.1" height="22.6"/>
	</g>
	<path class="st0" d="M68,66v24.4h0c0,3.3-2.7,6-6,6c-3.3,0-6-2.7-6-6c0,3.3-2.7,6-6,6c-3.3,0-6-2.7-6-6c0,3.3-2.7,6-6,6
		c-3.3,0-6-2.7-6-6V66H68z"/>
</g>
</svg>
