<?xml version="1.0" encoding="utf-8"?>
<!-- Generator: Adobe Illustrator 23.0.0, SVG Export Plug-In . SVG Version: 6.00 Build 0)  -->
<svg version="1.1" id="Capa_1" xmlns="http://www.w3.org/2000/svg" xmlns:xlink="http://www.w3.org/1999/xlink" x="0px" y="0px"
	 viewBox="0 0 100 100" style="enable-background:new 0 0 100 100;" xml:space="preserve">
<style type="text/css">
	.st0{fill:#FFFFFF;stroke:#000000;stroke-width:0.75;stroke-miterlimit:10;}
	.st1{fill:#FFFFFF;stroke:#000000;stroke-width:1.5;stroke-miterlimit:10;}
	.st2{fill:#FFFFFF;stroke:#000000;stroke-linejoin:round;stroke-miterlimit:10;}
	.st3{fill:#FFFFFF;stroke:#000000;stroke-miterlimit:10;}
</style>
<g>
	<g>
		<g>
			<path d="M18.3,31c-0.4-0.4-0.5-1-0.3-1.5s0.6-0.9,1-1.3s0.9-0.6,1.3-0.9c0.5-0.4,0.9-0.8,1.3-1.3c0.9,1.6,1,2.9,0.7,4.7
				c-0.1,0.4-0.2,0.7-0.4,1c-0.3,0.2-0.6,0.3-1,0.3c-0.5,0-0.8,0.8-1.4,0.7"/>
			<path class="st0" d="M22.7,36.4c-3.7-2.5-7.6-4.5-11.8-6c0.8-0.7,1.4-1.5,2.2-2.2c2.1,0.5,4,1.7,5.6,3.1
				C20.2,32.7,21.4,34.6,22.7,36.4z"/>
			<path class="st1" d="M43.7,37.1c-1.2-2.2-3.2-3.9-5.6-4.7c-2.3-0.9-5-0.9-7.3-0.1c-3,1.1-5.5,3.5-8.4,4.7
				c-3.2,0.5-6.5-0.2-9.7,0.5c-2.4,0.6-4.6,2-6.1,4c-1.5,2-2.3,4.5-2.2,7c0.1,1.1,0.3,2.2,0.6,3.2c1.9,6.9,6.8,12.8,12.8,16.7
				c2.7,1.8,6,3.2,9.1,2.5c1.7-0.4,3.2-1.3,4.6-2.3c1.7,0,3.5,0,5.1-0.5c3-1.1,5-4,6.4-7c3-6.5,4-14.1,1.9-20.9
				C44.7,39.1,44.3,38.1,43.7,37.1z"/>
		</g>
		<path d="M38.1,36.5c1,1.1,2.2,2.2,2.9,3.6c0.4,0.9,0.8,1.8,1,2.8c0.6,2.8-0.2,5.7-0.9,8.4c-1-4.8-2.1-9.7-4.5-14
			C37.2,36.9,37.5,36.9,38.1,36.5z"/>
	</g>
	<g>
		<path class="st2" d="M68.2,39c0,0,2.9-5.7,2.3-13.1c-0.6-7.4,2.6-6.4,2.6-6.4s1.6,0.2,2.5,2.3c0,0-1.5-7.7,1.2-8.4
			c2.6-0.7,4.2,0.5,4.8,2.6c0,0-0.2-4.8,2.8-5.8c3-1,3.3,3.7,3.3,3.7s2.9-2.8,4.2-1.5c1.3,1.3,0,4.6,0,4.6s3.6-0.5,3.7,2.2
			c0.1,2.7-1.7,3.3-4.3,4.5c0,0,3.7,1.2,2.8,3.8S92,30.7,87,31c0,0,3.2,2,2,3.7c-1.2,1.6-7.7,2-10.5,3.1c-2.9,1.1-4,1.5-5.3,2.7
			c-1.3,1.2-1.5,1.4-1.5,1.4"/>
		<path class="st1" d="M70,40.1c-10.5-7.6-17.6,5.8-17.6,5.8C27,85.1,30.6,89.6,30.9,89.9l0,0c0,0,0,0,0,0c0,0,0,0,0,0l0,0
			c0.4,0.2,5.6,2.6,37.7-31.4C68.6,58.5,79.9,48.4,70,40.1"/>
		<path class="st3" d="M42.4,61.5c0.7,0.5,1.5,0.9,2.2,1.4c0.3,0.2,0.5,0.3,0.8,0.5c0.4,0.3,0.6,0.7,0.8,1.2"/>
		<path class="st3" d="M53.2,44.1c0.4,0.1,0.8,0.3,1.2,0.4c0.4,0.1,0.9,0.3,1.3,0.5c0.6,0.3,1.3,0.7,1.7,1.2
			c0.5,0.6,1.3,1.6,1.7,2.4"/>
		<path class="st3" d="M63,63.7c-0.6-0.6-0.9-1.5-1.5-2.1c-0.8-0.9-1.9-1.4-3-1.8"/>
		<path class="st3" d="M36,73.3c0.7-0.2,1.4,0.3,2,0.7c0.4,0.3,0.9,0.7,1.3,1c0.1,0.1,0.3,0.2,0.4,0.3"/>
		<path class="st3" d="M40.9,84.5c-0.6-1.5-2.4-2.2-3.4-3.4"/>
	</g>
</g>
</svg>
