<?xml version="1.0" encoding="utf-8"?>
<!-- Generator: Adobe Illustrator 23.0.0, SVG Export Plug-In . SVG Version: 6.00 Build 0)  -->
<svg version="1.1" id="Capa_1" xmlns="http://www.w3.org/2000/svg" xmlns:xlink="http://www.w3.org/1999/xlink" x="0px" y="0px"
	 viewBox="0 0 100 100" style="enable-background:new 0 0 100 100;" xml:space="preserve">
<style type="text/css">
	.st0{fill:none;stroke:#000000;stroke-width:1.5;stroke-miterlimit:10;}
	.st1{fill:none;stroke:#000000;stroke-miterlimit:10;}
</style>
<g>
	<polygon class="st0" points="41.7,12.9 47.7,18.8 47.7,31.2 57.6,31.2 57.6,18.8 68.1,17 68.1,7.4 47.2,7.4 	"/>
	<path class="st1" d="M68.1,8.9c1.7,0,3.1,1.4,3.1,3.1s-1.4,3.1-3.1,3.1"/>
	<path class="st1" d="M61.3,18.3c0.9,1.7,2,3.2,3.3,4.6c0.5,0.6,1.1,1.3,1.8,1.7c0.7,0.5,1.5,0.8,2.3,1c1.2,0.4,2.5,0.7,3.7,1"/>
	<g>
		<path class="st0" d="M47.7,31.2c0,0-7.2,16.1-7.8,30.4c-0.6,14.3,3,35.7,3,35.7h12"/>
		<path class="st0" d="M57.5,31.2c0,0,7.2,16.1,7.8,30.4c0.6,14.3-3,35.7-3,35.7h-12"/>
	</g>
	<path class="st1" d="M52.9,31.6c-0.3,6.6,0,13.1,0.8,19.7c0.2,1.5,0.4,2.9,0.9,4.3c0.6,1.5,1.5,2.9,2.4,4.3
		c1.8,2.7,3.7,5.3,5.7,7.8"/>
	<path class="st1" d="M39.7,61.6c1.5,0.4,3.1,0.8,4.7,0.6c1.1-0.1,2.3-0.5,3.4-0.8c1.6-0.5,3.1-1,4.7-1.4c3-0.8,6.1-1.6,9.1-1
		c1.2,0.2,2.5,0.6,3.6,0.1"/>
</g>
</svg>
