<?xml version="1.0" encoding="utf-8"?>
<!-- Generator: Adobe Illustrator 23.0.0, SVG Export Plug-In . SVG Version: 6.00 Build 0)  -->
<svg version="1.1" id="Capa_1" xmlns="http://www.w3.org/2000/svg" xmlns:xlink="http://www.w3.org/1999/xlink" x="0px" y="0px"
	 viewBox="0 0 100 100" style="enable-background:new 0 0 100 100;" xml:space="preserve">
<style type="text/css">
	.st0{fill:none;stroke:#000000;stroke-width:1.5;stroke-miterlimit:10;}
	.st1{fill:none;stroke:#000000;stroke-width:1.5;stroke-miterlimit:10;stroke-dasharray:4.8048,4.8048;}
	.st2{fill:none;stroke:#000000;stroke-miterlimit:10;}
	.st3{fill:#FFFFFF;stroke:#000000;stroke-miterlimit:10;}
</style>
<g>
	<g>
		<path class="st0" d="M38.8,19V6.3H87V19c0,0,12.8,26.8,1.7,59.7"/>
		<g>
			<g>
				<line class="st0" x1="38.8" y1="19.6" x2="41.3" y2="19.6"/>
				<line class="st1" x1="46.1" y1="19.6" x2="82.1" y2="19.6"/>
				<line class="st0" x1="84.5" y1="19.6" x2="87" y2="19.6"/>
			</g>
		</g>
		<path class="st0" d="M38.8,19c-4.4,13-5.7,27.5-4.7,41.1"/>
		<rect x="50" y="33.7" class="st2" width="25.8" height="8.3"/>
	</g>
	<ellipse class="st0" cx="47.8" cy="66.6" rx="35" ry="6.8"/>
	<ellipse class="st2" cx="47.8" cy="66.6" rx="28.6" ry="4.3"/>
	<line class="st0" x1="2.8" y1="86.9" x2="12.7" y2="66.6"/>
	<g>
		<path class="st0" d="M92.6,86.5c0.4,4.7-20.1,8.7-44.9,8.7S2.9,91.3,2.9,86.5"/>
		<line class="st0" x1="82.8" y1="66.6" x2="92.7" y2="86.9"/>
	</g>
	<g>
		<path class="st3" d="M22.1,67.7c1-3,2.5-4.3,5.4-4.3c1.1,0,2.2,0.3,3,0.9c1.1-2.7,3.7-4.6,6.8-4.6c0.6,0,1.2,0.1,1.7,0.2
			c-1-1.2-1.6-2.8-1.6-4.5c0-4,3.3-2.7,7.3-2.7c4,0,7.3-1.3,7.3,2.7c0,1.5-0.5,3-1.3,4.2c1.1-0.7,2.4-1.1,3.8-1.1
			c1.2,0,2.4,0.3,3.4,0.8c1.3-1.2,3-1.9,4.9-1.9c4.1,0,7.3,3.3,7.3,7.3c0,0.1,0,0.2,0,0.3c1,1.3,1.1,1,1.7,3"/>
	</g>
</g>
</svg>
