<?xml version="1.0" encoding="utf-8"?>
<!-- Generator: Adobe Illustrator 19.0.0, SVG Export Plug-In . SVG Version: 6.00 Build 0)  -->
<svg version="1.1" id="Layer_1" xmlns="http://www.w3.org/2000/svg" xmlns:xlink="http://www.w3.org/1999/xlink" x="0px" y="0px"
	 viewBox="0 0 96 96" style="enable-background:new 0 0 96 96;" xml:space="preserve">
<g id="XMLID_1_">
	<path id="XMLID_3_" d="M38.5,54.9h-0.9V60h20.6l0-5.2l-0.9,0l0.5,0.7c5.4-3.3,9-9.3,9-16.1c0-10.4-8.5-18.9-18.9-18.9
		c-10.4,0-18.9,8.5-18.9,18.9c0,6.8,3.6,12.9,9,16.2L38.5,54.9h-0.9H38.5l0.5-0.7c-4.9-3-8.2-8.5-8.2-14.7c0-4.7,1.9-9,5-12.2
		c3.1-3.1,7.4-5,12.2-5c4.7,0,9,1.9,12.2,5c3.1,3.1,5,7.4,5,12.2c0,6.2-3.3,11.6-8.2,14.6l-0.4,0.3l0,4H39.4l0-3.9L39,54.1
		L38.5,54.9z"/>
	<polyline id="XMLID_4_" points="45.4,59 42.8,41.9 41.1,42.1 43.7,59.3 	"/>
	<polyline id="XMLID_5_" points="52.3,59.3 54.9,42.1 53.2,41.9 50.6,59 	"/>
	<polygon id="XMLID_6_" points="41.5,43.5 45.5,46.6 48,44.1 50.5,46.6 54.5,43.5 53.5,42.2 50.7,44.3 48,41.6 45.3,44.3 42.5,42.2 
		41.5,43.5 	"/>
	<polygon id="XMLID_7_" points="38.5,59.2 38.5,60 56.6,60 56.6,63.5 39.4,63.5 39.4,59.2 38.5,59.2 38.5,60 38.5,59.2 37.7,59.2 
		37.7,65.2 58.3,65.2 58.3,58.3 37.7,58.3 37.7,59.2 	"/>
	<polygon id="XMLID_8_" points="40.3,64.3 40.3,65.2 54.9,65.2 54.9,68.6 41.1,68.6 41.1,64.3 40.3,64.3 40.3,65.2 40.3,64.3 
		39.4,64.3 39.4,70.3 56.6,70.3 56.6,63.5 39.4,63.5 39.4,64.3 	"/>
	<polygon id="XMLID_9_" points="42,69.5 42,70.3 53.2,70.3 53.2,73.8 42.8,73.8 42.8,69.5 42,69.5 42,70.3 42,69.5 41.1,69.5 
		41.1,75.5 54.9,75.5 54.9,68.6 41.1,68.6 41.1,69.5 	"/>
</g>
</svg>
