<?xml version="1.0" encoding="utf-8"?>
<!-- Generator: Adobe Illustrator 23.0.0, SVG Export Plug-In . SVG Version: 6.00 Build 0)  -->
<svg version="1.1" id="Capa_1" xmlns="http://www.w3.org/2000/svg" xmlns:xlink="http://www.w3.org/1999/xlink" x="0px" y="0px"
	 viewBox="0 0 100 100" style="enable-background:new 0 0 100 100;" xml:space="preserve">
<style type="text/css">
	.st0{fill:none;stroke:#000000;stroke-width:1.5;stroke-miterlimit:10;}
	.st1{fill:none;stroke:#000000;stroke-miterlimit:10;}
</style>
<g>
	<path class="st0" d="M29.2,73.5c0-16.6,13.5-30.1,30.1-30.1s30.1,13.5,30.1,30.1S75.8,88.9,59.3,88.9S29.2,90.1,29.2,73.5z"/>
	<rect x="54.4" y="33.6" class="st0" width="9.6" height="9.9"/>
	<rect x="51.1" y="19.2" class="st0" width="16.3" height="14.4"/>
	<path class="st0" d="M67.4,23.4c1.7,0,3,1.4,3,3s-1.4,3-3,3"/>
	<path class="st0" d="M50.7,26c-6.5,1.6-13.2,1.8-19.7,3.3c-1.9,0.4-3.8,0.9-5.5,1.9c-1.5,0.8-2.7,2-3.8,3.2
		c-3.9,4.5-5.7,10.3-7.4,16"/>
	<ellipse transform="matrix(0.2865 -0.9581 0.9581 0.2865 -53.0428 54.8352)" class="st0" cx="10.3" cy="63" rx="13.8" ry="5.4"/>
	<path class="st1" d="M59.1,43.3c0.1,2.2-0.2,4.4-0.2,6.6c-0.1,8.4,3.8,16.7,10.2,22.1"/>
	<path class="st0" d="M31.9,61.3c1.8,2.5,4.5,4.1,7.4,5s6,1.2,9,1.4c2.3,0.2,4.6,0.4,6.9,0c1.5-0.2,2.9-0.7,4.4-1
		c6.8-1.3,13.7,1.1,20.6,1.1c2.8,0,5.6-0.5,8.4,0.1"/>
</g>
</svg>
