<?xml version="1.0" encoding="utf-8"?>
<!-- Generator: Adobe Illustrator 23.0.0, SVG Export Plug-In . SVG Version: 6.00 Build 0)  -->
<svg version="1.1" id="Capa_1" xmlns="http://www.w3.org/2000/svg" xmlns:xlink="http://www.w3.org/1999/xlink" x="0px" y="0px"
	 viewBox="0 0 100 100" style="enable-background:new 0 0 100 100;" xml:space="preserve">
<style type="text/css">
	.st0{fill:none;stroke:#000000;stroke-width:1.5;stroke-miterlimit:10;}
	.st1{fill:none;stroke:#000000;stroke-miterlimit:10;}
</style>
<g>
	<rect x="5.1" y="5.6" class="st0" width="70.2" height="89.6"/>
	<rect x="5.1" y="5.6" class="st0" width="11.3" height="89.6"/>
	<rect x="30" y="16.8" class="st1" width="28.6" height="13.6"/>
	<g>
		<polygon class="st0" points="87.6,22.5 87.6,83.8 89.9,87.7 92.2,91.7 94.5,87.7 96.7,83.8 96.7,22.5 		"/>
		<polyline class="st0" points="87.6,83.8 90,81.5 92,83.5 94.2,81.4 96.6,83.9 		"/>
		<path d="M94.4,87.5c-0.8,1.2-1.4,2.6-2,3.9c-0.5-0.5-0.9-1-1.3-1.6c-0.2-0.3-0.3-0.6-0.5-0.9c-0.1-0.2-0.5-0.7-0.4-1
			c0-0.4,1.5-0.5,1.9-0.6c0.4-0.1,0.8-0.1,1.2-0.1C93.4,87.4,94.4,87.5,94.4,87.5z"/>
		<rect x="88.4" y="14.4" class="st0" width="7.5" height="5"/>
		<rect x="87.6" y="19.4" class="st0" width="9.1" height="3.1"/>
	</g>
</g>
</svg>
