<?xml version="1.0" standalone="no"?>
<!DOCTYPE svg PUBLIC "-//W3C//DTD SVG 20010904//EN"
 "http://www.w3.org/TR/2001/REC-SVG-20010904/DTD/svg10.dtd">
<svg version="1.0" xmlns="http://www.w3.org/2000/svg"
 width="990.000000pt" height="990.000000pt" viewBox="0 0 990.000000 990.000000"
 preserveAspectRatio="xMidYMid meet">
<metadata>
Created by potrace 1.11, written by Peter Selinger 2001-2013
</metadata>
<g transform="translate(0.000000,990.000000) scale(0.100000,-0.100000)"
fill="#000000" stroke="none">
<path d="M1895 7193 c-96 -46 -98 -190 -3 -239 44 -23 226 -23 280 -1 96 40
97 188 2 237 -40 21 -237 23 -279 3z"/>
<path d="M2661 7202 c-40 -6 -73 -34 -91 -75 -28 -63 -10 -127 47 -164 25 -17
76 -18 633 -23 554 -5 608 -6 637 -23 72 -39 84 -90 61 -246 -9 -64 -17 -117
-17 -118 -1 -1 -11 -11 -23 -23 -21 -19 -33 -20 -367 -20 -325 0 -348 -1 -378
-20 -44 -27 -66 -63 -67 -114 0 -50 21 -89 67 -116 31 -19 68 -19 1512 -18
814 0 1500 -2 1525 -6 264 -40 442 -183 477 -382 20 -110 -2 -255 -54 -359
-26 -53 -89 -140 -120 -165 -127 -105 -245 -160 -406 -186 -23 -4 -258 -8
-521 -8 -514 -1 -550 2 -612 49 -60 46 -80 134 -55 246 12 55 23 128 23 151
-1 32 -34 88 -66 111 l-31 22 -1657 3 c-1575 2 -1659 1 -1689 -16 -89 -49 -90
-180 -1 -229 37 -21 48 -21 1032 -21 547 0 1015 -3 1039 -7 84 -12 153 -64
181 -133 18 -46 16 -177 -5 -302 -2 -14 -7 -52 -10 -85 -3 -33 -8 -76 -10 -95
-3 -19 -7 -57 -10 -85 -2 -27 -7 -66 -9 -85 -3 -19 -8 -57 -11 -84 -12 -98
-30 -108 -201 -111 -104 -1 -126 -5 -156 -23 -72 -45 -83 -135 -24 -200 l34
-37 829 -5 c781 -5 830 -6 868 -24 103 -48 87 -29 584 -696 117 -157 218 -292
224 -300 7 -8 37 -49 67 -90 30 -41 57 -77 60 -80 3 -3 58 -76 123 -162 188
-252 145 -240 847 -240 547 0 579 2 606 39 23 33 -3 100 -73 183 -7 8 -114
148 -237 310 -124 162 -229 300 -233 305 -5 6 -65 84 -133 175 -69 91 -127
167 -130 170 -3 3 -17 21 -30 40 -13 19 -27 37 -30 40 -19 16 -163 225 -174
252 -12 27 -12 39 -1 71 19 55 61 86 175 126 344 121 657 361 853 654 64 95
149 270 186 382 60 182 91 376 91 575 1 355 -113 643 -344 874 -226 226 -494
343 -896 392 -58 7 -3868 13 -3909 6z"/>
<path d="M743 5700 c-85 -51 -82 -185 5 -231 44 -23 306 -25 359 -3 43 18 73
67 73 119 0 52 -17 84 -59 112 -32 22 -44 23 -190 23 -137 0 -160 -2 -188 -20z"/>
<path d="M2274 4454 c-95 -32 -115 -154 -38 -221 l37 -33 279 0 c309 0 321 2
358 63 38 61 18 146 -43 182 -29 18 -54 19 -295 20 -179 1 -275 -3 -298 -11z"/>
<path d="M1743 3780 c-45 -27 -65 -62 -66 -115 -1 -54 23 -92 74 -117 47 -24
285 -26 332 -3 97 47 100 186 6 237 -28 15 -57 18 -174 18 -121 0 -144 -3
-172 -20z"/>
<path d="M2515 3791 c-11 -5 -30 -19 -42 -32 -61 -66 -47 -162 29 -209 27 -16
54 -19 224 -20 204 -1 236 -6 294 -49 74 -54 85 -74 200 -374 50 -128 100
-257 112 -287 19 -51 71 -127 108 -158 8 -7 35 -22 59 -34 42 -20 61 -20 430
-20 212 1 401 3 419 7 112 19 223 98 260 185 109 251 160 366 188 428 19 41
34 75 34 77 0 3 17 40 112 244 17 36 32 76 33 90 5 39 -28 105 -66 132 l-34
24 -1170 2 c-643 1 -1179 -2 -1190 -6z"/>
<path d="M3659 2391 c-74 -40 -99 -128 -54 -193 73 -107 231 -63 241 67 8 99
-101 172 -187 126z"/>
<path d="M4112 2394 c-64 -26 -94 -83 -80 -150 25 -120 192 -142 247 -32 54
111 -54 230 -167 182z"/>
</g>
</svg>
